# xmcd
#
# Track frame offsets:
#	150
#	33135
#	59572
#	81621
#	111729
#	134112
#	152977
#	171661
#	191733
#	216180
#	241534
#
# Disc length: 3442 seconds
#
# Revision: 0
# Processed by: cddbd v1.4PL0 Copyright (c) Steve Scherf et al.
# Submitted via: EZCDDA 4.3.3.2
#
DISCID=ad0d700b
DTITLE=Paul Carrack - Live At Harry's Bar - York
DYEAR=1900
DGENRE=
TTITLE0=Can You See Me Running
TTITLE1=Inspire Me
TTITLE2=Satisfied
TTITLE3=Better Than Nothing
TTITLE4=Love Will Keep Us Alive
TTITLE5=How Wonderful
TTITLE6=Satisfy My Soul
TTITLE7=Tempted
TTITLE8=The Living Years
TTITLE9=Over My Shoulder
TTITLE10=Dance To The Music
EXTD=
EXTT0=
EXTT1=
EXTT2=
EXTT3=
EXTT4=
EXTT5=
EXTT6=
EXTT7=
EXTT8=
EXTT9=
EXTT10=
PLAYORDER=
